<svg width="38" height="38" viewBox="0 0 38 38" fill="none" xmlns="http://www.w3.org/2000/svg">
  <circle cx="18.8462" cy="18.8462" r="18.3462" fill="white" stroke="#D9E0E6"/>
  <mask id="mask0_938_8432" style="mask-type:alpha" maskUnits="userSpaceOnUse" x="9" y="9" width="19" height="19">
    <rect x="9.84619" y="9.84619" width="18" height="18" fill="#D9D9D9"/>
  </mask>
  <g mask="url(#mask0_938_8432)">
    <path d="M18.0962 21.8467V15.7342L16.1462 17.6842L15.0962 16.5967L18.8462 12.8467L22.5962 16.5967L21.5462 17.6842L19.5962 15.7342V21.8467H18.0962ZM14.3462 24.8467C13.9337 24.8467 13.5806 24.6998 13.2868 24.4061C12.9931 24.1123 12.8462 23.7592 12.8462 23.3467V21.0967H14.3462V23.3467H23.3462V21.0967H24.8462V23.3467C24.8462 23.7592 24.6993 24.1123 24.4056 24.4061C24.1118 24.6998 23.7587 24.8467 23.3462 24.8467H14.3462Z" fill="#2F3950"/>
  </g>
</svg>
