<svg width="18" height="19" viewBox="0 0 18 19" fill="none" xmlns="http://www.w3.org/2000/svg">
<path d="M0.666748 18.9998V15.6665H17.3334V18.9998H0.666748ZM4.00008 12.3332H5.16675L11.6667 5.854L10.4792 4.6665L4.00008 11.1665V12.3332ZM2.33341 13.9998V10.4582L11.6667 1.14567C11.8195 0.992893 11.9966 0.874837 12.198 0.791504C12.3994 0.708171 12.6112 0.666504 12.8334 0.666504C13.0556 0.666504 13.2709 0.708171 13.4792 0.791504C13.6876 0.874837 13.8751 0.999837 14.0417 1.1665L15.1876 2.33317C15.3542 2.48595 15.4758 2.6665 15.5522 2.87484C15.6286 3.08317 15.6667 3.29845 15.6667 3.52067C15.6667 3.729 15.6286 3.93387 15.5522 4.13525C15.4758 4.33664 15.3542 4.52067 15.1876 4.68734L5.87508 13.9998H2.33341Z" fill="#383838"/>
</svg>
