<svg width="14" height="14" viewBox="0 0 14 14" fill="none" xmlns="http://www.w3.org/2000/svg">
<path d="M5.8883 13.687C5.65066 13.687 5.45146 13.6068 5.29071 13.4465C5.12996 13.2862 5.04958 13.0876 5.04958 12.8506V7.83264L0.185011 1.64379C-0.0246682 1.36502 -0.0561201 1.0723 0.0906556 0.765646C0.237431 0.458991 0.492541 0.305664 0.855986 0.305664H12.598C12.9615 0.305664 13.2166 0.458991 13.3634 0.765646C13.5101 1.0723 13.4787 1.36502 13.269 1.64379L8.40445 7.83264V12.8506C8.40445 13.0876 8.32407 13.2862 8.16332 13.4465C8.00257 13.6068 7.80337 13.687 7.56573 13.687H5.8883ZM6.72701 7.24721L10.8787 1.97833H2.57536L6.72701 7.24721Z" fill="#6F7683"/>
</svg>
