<svg width="20" height="20" viewBox="0 0 20 20" fill="none" xmlns="http://www.w3.org/2000/svg">
<mask id="mask0_394_6022" style="mask-type:alpha" maskUnits="userSpaceOnUse" x="0" y="0" width="20" height="20">
<rect width="20" height="20" fill="#D9D9D9"/>
</mask>
<g mask="url(#mask0_394_6022)">
<path d="M9.81575 13.9925C10.8641 13.9925 11.7553 13.6266 12.4892 12.8948C13.223 12.163 13.59 11.2744 13.59 10.229C13.59 9.18361 13.223 8.29501 12.4892 7.56322C11.7553 6.83143 10.8641 6.46554 9.81575 6.46554C8.76735 6.46554 7.87621 6.83143 7.14233 7.56322C6.40845 8.29501 6.04151 9.18361 6.04151 10.229C6.04151 11.2744 6.40845 12.163 7.14233 12.8948C7.87621 13.6266 8.76735 13.9925 9.81575 13.9925ZM9.81575 12.4871C9.18671 12.4871 8.65203 12.2676 8.2117 11.8285C7.77137 11.3894 7.55121 10.8563 7.55121 10.229C7.55121 9.60178 7.77137 9.06862 8.2117 8.62954C8.65203 8.19047 9.18671 7.97093 9.81575 7.97093C10.4448 7.97093 10.9795 8.19047 11.4198 8.62954C11.8601 9.06862 12.0803 9.60178 12.0803 10.229C12.0803 10.8563 11.8601 11.3894 11.4198 11.8285C10.9795 12.2676 10.4448 12.4871 9.81575 12.4871ZM9.81575 16.5015C7.77486 16.5015 5.91571 15.9335 4.23827 14.7975C2.56083 13.6615 1.34469 12.1386 0.589844 10.229C1.34469 8.3194 2.56083 6.79658 4.23827 5.66057C5.91571 4.52455 7.77486 3.95654 9.81575 3.95654C11.8566 3.95654 13.7158 4.52455 15.3932 5.66057C17.0707 6.79658 18.2868 8.3194 19.0416 10.229C18.2868 12.1386 17.0707 13.6615 15.3932 14.7975C13.7158 15.9335 11.8566 16.5015 9.81575 16.5015ZM9.81575 14.8288C11.3953 14.8288 12.8456 14.4142 14.1666 13.5848C15.4876 12.7554 16.4975 11.6368 17.1965 10.229C16.4975 8.8212 15.4876 7.70261 14.1666 6.87325C12.8456 6.04389 11.3953 5.6292 9.81575 5.6292C8.23616 5.6292 6.78588 6.04389 5.46489 6.87325C4.14391 7.70261 3.13396 8.8212 2.43502 10.229C3.13396 11.6368 4.14391 12.7554 5.46489 13.5848C6.78588 14.4142 8.23616 14.8288 9.81575 14.8288Z" fill="#3D64BE"/>
</g>
</svg>
